<svg xmlns="http://www.w3.org/2000/svg" viewBox="0 0 640 480" width="640" height="480" role="img"><defs><filter id="grain"><feTurbulence type="fractalNoise" baseFrequency="0.9" numOctaves="2" stitchTiles="stitch"/></filter></defs>
    <rect width="640" height="480" fill="#0b1a83"/>
    <rect x="0" y="0" width="640" height="128" fill="#070f5c"/>
    <circle cx="118" cy="96" r="58" fill="#99c10b"/>
    <path d="M 556.0 58.0 L 560.1 78.0 L 577.2 66.8 L 566.0 83.9 L 586.0 88.0 L 566.0 92.1 L 577.2 109.2 L 560.1 98.0 L 556.0 118.0 L 551.9 98.0 L 534.8 109.2 L 546.0 92.1 L 526.0 88.0 L 546.0 83.9 L 534.8 66.8 L 551.9 78.0 Z" fill="#fdd504"/>
    <g transform="translate(58 150) scale(0.92)">
    <rect x="0" y="120" width="520" height="14" rx="7" fill="#f1eee8"/>
    <rect x="0" y="152" width="520" height="10" rx="5" fill="#f1eee8" opacity="0.65"/>
    <rect x="26" y="162" width="20" height="86" rx="8" fill="#f1eee8"/>
    <rect x="474" y="162" width="20" height="86" rx="8" fill="#f1eee8"/>
    <rect x="26" y="240" width="468" height="12" rx="6" fill="#f1eee8" opacity="0.5"/>
    <rect x="150" y="78" width="250" height="44" rx="14" fill="#f1eee8"/>
    <rect x="150" y="70" width="250" height="14" rx="7" fill="#fdd504"/>
    <rect x="164" y="52" width="26" height="24" rx="8" fill="#fdd504"/>
    <rect x="206" y="52" width="26" height="24" rx="8" fill="#fdd504"/>
    <path d="M404 96 h58 a10 10 0 0 1 10 10 v54" fill="none" stroke="#fdd504" stroke-width="13" stroke-linecap="round"/>
    <path d="M56 108 q14 -14 28 0 q14 14 28 0 q14 -14 28 0" fill="none" stroke="#fdd504" stroke-width="8" stroke-linecap="round"/>
    <rect x="86" y="80" width="58" height="20" rx="9" fill="#f1eee8" opacity="0.85"/>
  </g>
    <rect x="0" y="440" width="640" height="40" fill="#f1eee8" opacity="0.12"/>
  <rect width="640" height="480" filter="url(#grain)" opacity="0.10" style="mix-blend-mode:multiply"/></svg>